<?xml version="1.0" encoding="UTF-8"?>
<svg width="258px" height="60px" viewBox="0 0 258 60" version="1.1" xmlns="http://www.w3.org/2000/svg" xmlns:xlink="http://www.w3.org/1999/xlink">
    <!-- Generator: Sketch 55.2 (78181) - https://sketchapp.com -->
    <title>Acuity Ventures</title>
    <desc>Created with Sketch.</desc>
    <g id="Page-1" stroke="none" stroke-width="1" fill="none" fill-rule="evenodd">
        <g id="Artboard" transform="translate(-370.000000, -426.000000)" fill="#000000">
            <g id="Acuity-Ventures" transform="translate(370.000000, 426.000000)">
                <g id="Group-4">
                    <path d="M39,60 L30,42 L21,60 L0,60 L30,0 L60,60 L39,60 Z" id="Combined-Shape-Copy"></path>
                    <polygon id="Path" points="51 0 69 0 60 18"></polygon>
                </g>
                <path d="M85.1582031,16.980957 L90.1386719,16.980957 L88.3076172,12.9038086 C88.2018224,12.6433906 88.0919602,12.3443214 87.9780273,12.0065918 C87.8640945,11.6688622 87.7501633,11.2924825 87.6362305,10.8774414 C87.5385737,11.2680684 87.434815,11.6322411 87.3249512,11.9699707 C87.2150873,12.3077003 87.1031907,12.6189764 86.9892578,12.9038086 L85.1582031,16.980957 Z M93.1904297,24 L91.1640625,19.3979492 L84.0839844,19.3979492 L82.0087891,24 L78.9570312,24 L87.6118164,5.42089844 L96.2543945,24 L93.1904297,24 Z M120.176107,10.4746094 C119.354163,9.77473608 118.485438,9.24983899 117.569906,8.89990234 C116.654374,8.5499657 115.692062,8.375 114.682943,8.375 C112.729808,8.375 111.140875,9.00162134 109.916097,10.2548828 C108.691319,11.5081443 108.078939,13.1316632 108.078939,15.1254883 C108.078939,17.0542089 108.675043,18.645176 109.867269,19.8984375 C111.059495,21.151699 112.562979,21.7783203 114.377767,21.7783203 C115.435715,21.7783203 116.442785,21.5911477 117.399007,21.2167969 C118.355229,20.842446 119.272782,20.2768593 120.151693,19.5200195 L120.151693,22.8037109 C119.370439,23.3652372 118.520024,23.7843411 117.600423,24.0610352 C116.680822,24.3377292 115.683925,24.4760742 114.609701,24.4760742 C113.242506,24.4760742 111.979091,24.2522809 110.819417,23.8046875 C109.659744,23.3570941 108.640467,22.697921 107.761556,21.8271484 C106.890783,20.972652 106.221438,19.965582 105.753499,18.8059082 C105.285561,17.6462344 105.051595,16.4113021 105.051595,15.1010742 C105.051595,13.7908463 105.285561,12.559983 105.753499,11.4084473 C106.221438,10.2569116 106.898921,9.24577258 107.78597,8.375 C108.673019,7.49608936 109.690261,6.83081281 110.837728,6.37915039 C111.985195,5.92748798 113.22623,5.70166016 114.560872,5.70166016 C115.610682,5.70166016 116.611649,5.85424652 117.563802,6.15942383 C118.515955,6.46460114 119.439611,6.9264292 120.334798,7.54492188 L120.176107,10.4746094 Z M132.037272,6.12890625 L134.905924,6.12890625 L134.905924,16.980957 C134.905924,18.5922932 135.278235,19.8028117 136.022868,20.6125488 C136.7675,21.4222859 137.880364,21.8271484 139.361491,21.8271484 C140.83448,21.8271484 141.943274,21.4222859 142.687907,20.6125488 C143.43254,19.8028117 143.80485,18.5922932 143.80485,16.980957 L143.80485,6.12890625 L146.710124,6.12890625 L146.710124,17.2495117 C146.710124,19.666516 146.099778,21.475173 144.879069,22.6755371 C143.65836,23.8759012 141.819185,24.4760742 139.361491,24.4760742 C136.903796,24.4760742 135.068691,23.8779357 133.85612,22.6816406 C132.643549,21.4853456 132.037272,19.6746541 132.037272,17.2495117 L132.037272,6.12890625 Z M159.096191,24 L159.096191,6.12890625 L162.001465,6.12890625 L162.001465,24 L159.096191,24 Z M180.283529,8.59472656 L180.283529,24 L177.378255,24 L177.378255,8.59472656 L172.62972,8.59472656 L172.62972,6.12890625 L185.00765,6.12890625 L185.00765,8.59472656 L180.283529,8.59472656 Z M199.407878,24 L199.407878,15.8212891 L193.389811,6.12890625 L196.441569,6.12890625 L200.189128,12.1958008 C200.278646,12.350424 200.390543,12.5538724 200.524821,12.8061523 C200.659099,13.0584323 200.795409,13.3310532 200.933757,13.6240234 C201.047689,13.3391913 201.167724,13.0706393 201.293864,12.8183594 C201.420004,12.5660795 201.552245,12.3341482 201.690592,12.1225586 L205.535807,6.12890625 L208.441081,6.12890625 L202.288737,15.8212891 L202.288737,24 L199.407878,24 Z" id="ACUITY" fill-rule="nonzero"></path>
                <path d="M86.7980143,56.6958008 L78.8268229,38.1289062 L81.8419596,38.1289062 L85.8458659,47.6503906 C86.0818697,48.2037788 86.2771802,48.7144345 86.4318034,49.182373 C86.5864266,49.6503116 86.7084956,50.0958638 86.7980143,50.519043 C86.9038091,50.0714496 87.0380851,49.607587 87.2008464,49.1274414 C87.3636076,48.6472958 87.5548492,48.1549504 87.7745768,47.6503906 L91.766276,38.1289062 L94.7692057,38.1289062 L86.7980143,56.6958008 Z M104.90918,56 L104.90918,38.1289062 L114.882324,38.1289062 L114.882324,40.5947266 L107.814453,40.5947266 L107.814453,45.074707 L114.882324,45.074707 L114.882324,47.6259766 L107.814453,47.6259766 L107.814453,53.3999023 L114.882324,53.3999023 L114.882324,56 L104.90918,56 Z M126.548177,56 L126.548177,37.4208984 L137.900716,48.3461914 C138.209962,48.6554377 138.523273,48.9850243 138.840658,49.3349609 C139.158042,49.6848976 139.491697,50.0795876 139.841634,50.519043 L139.841634,38.1289062 L142.527181,38.1289062 L142.527181,56.6958008 L130.942708,45.5751953 C130.633462,45.274087 130.334393,44.9567074 130.045492,44.6230469 C129.75659,44.2893864 129.481935,43.939455 129.221517,43.5732422 L129.221517,56 L126.548177,56 Z M160.736003,40.5947266 L160.736003,56 L157.830729,56 L157.830729,40.5947266 L153.082194,40.5947266 L153.082194,38.1289062 L165.460124,38.1289062 L165.460124,40.5947266 L160.736003,40.5947266 Z M175.941895,38.1289062 L178.810547,38.1289062 L178.810547,48.980957 C178.810547,50.5922932 179.182858,51.8028117 179.92749,52.6125488 C180.672123,53.4222859 181.784986,53.8271484 183.266113,53.8271484 C184.739102,53.8271484 185.847897,53.4222859 186.592529,52.6125488 C187.337162,51.8028117 187.709473,50.5922932 187.709473,48.980957 L187.709473,38.1289062 L190.614746,38.1289062 L190.614746,49.2495117 C190.614746,51.666516 190.004401,53.475173 188.783691,54.6755371 C187.562982,55.8759012 185.723808,56.4760742 183.266113,56.4760742 C180.808419,56.4760742 178.973313,55.8779357 177.760742,54.6816406 C176.548171,53.4853456 175.941895,51.6746541 175.941895,49.2495117 L175.941895,38.1289062 Z M205.857259,45.7460938 L206.382161,45.7460938 C207.920255,45.7460938 208.941566,45.5670591 209.446126,45.2089844 C209.950686,44.8509097 210.202962,44.2161504 210.202962,43.3046875 C210.202962,42.3199821 209.932376,41.6262227 209.391195,41.2233887 C208.850014,40.8205546 207.847013,40.6191406 206.382161,40.6191406 L205.857259,40.6191406 L205.857259,45.7460938 Z M205.674154,48.0043945 L205.674154,56 L202.951986,56 L202.951986,38.1289062 L207.00472,38.1289062 C208.192877,38.1289062 209.114499,38.2062167 209.769613,38.3608398 C210.424727,38.515463 210.98421,38.7718081 211.448079,39.1298828 C212.001468,39.5612001 212.428709,40.1186489 212.729818,40.8022461 C213.030926,41.4858433 213.181478,42.2345337 213.181478,43.0483398 C213.181478,44.4806387 212.835615,45.6016398 212.14388,46.411377 C211.452145,47.2211141 210.430834,47.707356 209.079915,47.8701172 L215.232259,56 L211.948568,56 L206.003743,48.0043945 L205.674154,48.0043945 Z M225.286784,56 L225.286784,38.1289062 L235.259928,38.1289062 L235.259928,40.5947266 L228.192057,40.5947266 L228.192057,45.074707 L235.259928,45.074707 L235.259928,47.6259766 L228.192057,47.6259766 L228.192057,53.3999023 L235.259928,53.3999023 L235.259928,56 L225.286784,56 Z M245.900391,52.4233398 L248.219727,51.3491211 C248.439454,52.1466511 248.842282,52.7549621 249.428223,53.1740723 C250.014163,53.5931824 250.762854,53.8027344 251.674316,53.8027344 C252.536951,53.8027344 253.222572,53.5626652 253.731201,53.0825195 C254.23983,52.6023739 254.494141,51.9594767 254.494141,51.1538086 C254.494141,50.1039987 253.623381,49.1681356 251.881836,48.3461914 C251.637694,48.2241205 251.450521,48.1346031 251.320313,48.0776367 C249.350902,47.1173455 248.038659,46.2486204 247.383545,45.4714355 C246.728431,44.6942507 246.400879,43.7441462 246.400879,42.6210938 C246.400879,41.1643807 246.895259,39.9843795 247.884033,39.0810547 C248.872808,38.1777299 250.168775,37.7260742 251.771973,37.7260742 C253.090339,37.7260742 254.193029,37.9803848 255.080078,38.4890137 C255.967127,38.9976425 256.581541,39.7280226 256.92334,40.6801758 L254.652832,41.8520508 C254.294757,41.2905245 253.902102,40.8795586 253.474854,40.6191406 C253.047605,40.3587227 252.557294,40.2285156 252.003906,40.2285156 C251.222652,40.2285156 250.602134,40.4319641 250.142334,40.8388672 C249.682534,41.2457703 249.452637,41.7910122 249.452637,42.4746094 C249.452637,43.5488335 250.461741,44.5498 252.47998,45.4775391 C252.634604,45.5507816 252.756673,45.6077472 252.846191,45.6484375 C254.612151,46.4622437 255.824704,47.2577272 256.483887,48.0349121 C257.14307,48.812097 257.472656,49.7825463 257.472656,50.9462891 C257.472656,52.6390059 256.939621,53.9838004 255.873535,54.9807129 C254.807449,55.9776254 253.367034,56.4760742 251.552246,56.4760742 C250.030429,56.4760742 248.783289,56.1261428 247.810791,55.4262695 C246.838293,54.7263962 246.201499,53.7254297 245.900391,52.4233398 Z" id="VENTURES" fill-rule="nonzero"></path>
            </g>
        </g>
    </g>
</svg>